<mxfile host="Electron" modified="2023-05-17T09:20:54.030Z" agent="Mozilla/5.0 (X11; Linux x86_64) AppleWebKit/537.36 (KHTML, like Gecko) draw.io/21.2.8 Chrome/112.0.5615.165 Electron/24.2.0 Safari/537.36" etag="wE9TmbfSPCmSx7mYWzPm" version="21.2.8" type="device">
  <diagram id="C5RBs43oDa-KdzZeNtuy" name="Page-1">
    <mxGraphModel dx="2534" dy="527" grid="1" gridSize="10" guides="1" tooltips="1" connect="1" arrows="1" fold="1" page="1" pageScale="1" pageWidth="827" pageHeight="1169" math="0" shadow="0">
      <root>
        <mxCell id="WIyWlLk6GJQsqaUBKTNV-0" />
        <mxCell id="WIyWlLk6GJQsqaUBKTNV-1" parent="WIyWlLk6GJQsqaUBKTNV-0" />
        <mxCell id="Z-YwWOS3lwranhnKrXIm-2" value="&lt;div&gt;Deseja-se fazer um sistema de rede social. Nesta rede social, os usuários podem seguir e&amp;nbsp;&lt;span style=&quot;background-color: initial;&quot;&gt;ser seguidos por outros usuários. O perfil do usuário deve permitir cadastrar nome, email, data de&amp;nbsp;&lt;/span&gt;&lt;span style=&quot;background-color: initial;&quot;&gt;nascimento, website, gênero, telefone e foto do perfil. Os usuários podem fazer postagens de texto em&amp;nbsp;&lt;/span&gt;&lt;span style=&quot;background-color: initial;&quot;&gt;sua própria &quot;linha do tempo&quot; (timeline) da rede social, sendo que podem anexar também fotos às&amp;nbsp;&lt;/span&gt;&lt;span style=&quot;background-color: initial;&quot;&gt;postagens. Uma foto é referenciada pela URI de seu local de armazenamento. As fotos podem ser&amp;nbsp;&lt;/span&gt;&lt;span style=&quot;background-color: initial;&quot;&gt;organizadas em álbuns, sendo que cada álbum possui um título.&lt;/span&gt;&lt;/div&gt;" style="text;html=1;strokeColor=none;fillColor=none;align=center;verticalAlign=middle;whiteSpace=wrap;rounded=0;" vertex="1" parent="WIyWlLk6GJQsqaUBKTNV-1">
          <mxGeometry x="-1630" y="50" width="880" height="70" as="geometry" />
        </mxCell>
        <mxCell id="Z-YwWOS3lwranhnKrXIm-8" value="Resposta:" style="text;html=1;strokeColor=none;fillColor=none;align=center;verticalAlign=middle;whiteSpace=wrap;rounded=0;" vertex="1" parent="WIyWlLk6GJQsqaUBKTNV-1">
          <mxGeometry x="-1630" y="140" width="60" height="30" as="geometry" />
        </mxCell>
        <mxCell id="Z-YwWOS3lwranhnKrXIm-9" value="&lt;span style=&quot;font-weight: normal;&quot;&gt;Usuario&lt;/span&gt;" style="swimlane;fontStyle=1;align=center;verticalAlign=top;childLayout=stackLayout;horizontal=1;startSize=26;horizontalStack=0;resizeParent=1;resizeParentMax=0;resizeLast=0;collapsible=1;marginBottom=0;whiteSpace=wrap;html=1;" vertex="1" parent="WIyWlLk6GJQsqaUBKTNV-1">
          <mxGeometry x="-1570" y="200" width="160" height="268" as="geometry" />
        </mxCell>
        <mxCell id="Z-YwWOS3lwranhnKrXIm-10" value="- &amp;lt;&amp;lt;oid&amp;gt;&amp;gt; id: Integer" style="text;strokeColor=none;fillColor=none;align=left;verticalAlign=top;spacingLeft=4;spacingRight=4;overflow=hidden;rotatable=0;points=[[0,0.5],[1,0.5]];portConstraint=eastwest;whiteSpace=wrap;html=1;" vertex="1" parent="Z-YwWOS3lwranhnKrXIm-9">
          <mxGeometry y="26" width="160" height="26" as="geometry" />
        </mxCell>
        <mxCell id="Z-YwWOS3lwranhnKrXIm-48" value="- nome: String" style="text;strokeColor=none;fillColor=none;align=left;verticalAlign=top;spacingLeft=4;spacingRight=4;overflow=hidden;rotatable=0;points=[[0,0.5],[1,0.5]];portConstraint=eastwest;whiteSpace=wrap;html=1;" vertex="1" parent="Z-YwWOS3lwranhnKrXIm-9">
          <mxGeometry y="52" width="160" height="26" as="geometry" />
        </mxCell>
        <mxCell id="Z-YwWOS3lwranhnKrXIm-13" value="- email: String" style="text;strokeColor=none;fillColor=none;align=left;verticalAlign=top;spacingLeft=4;spacingRight=4;overflow=hidden;rotatable=0;points=[[0,0.5],[1,0.5]];portConstraint=eastwest;whiteSpace=wrap;html=1;" vertex="1" parent="Z-YwWOS3lwranhnKrXIm-9">
          <mxGeometry y="78" width="160" height="26" as="geometry" />
        </mxCell>
        <mxCell id="Z-YwWOS3lwranhnKrXIm-14" value="- dataNascimento: Date" style="text;strokeColor=none;fillColor=none;align=left;verticalAlign=top;spacingLeft=4;spacingRight=4;overflow=hidden;rotatable=0;points=[[0,0.5],[1,0.5]];portConstraint=eastwest;whiteSpace=wrap;html=1;" vertex="1" parent="Z-YwWOS3lwranhnKrXIm-9">
          <mxGeometry y="104" width="160" height="26" as="geometry" />
        </mxCell>
        <mxCell id="Z-YwWOS3lwranhnKrXIm-16" value="- website: String" style="text;strokeColor=none;fillColor=none;align=left;verticalAlign=top;spacingLeft=4;spacingRight=4;overflow=hidden;rotatable=0;points=[[0,0.5],[1,0.5]];portConstraint=eastwest;whiteSpace=wrap;html=1;" vertex="1" parent="Z-YwWOS3lwranhnKrXIm-9">
          <mxGeometry y="130" width="160" height="26" as="geometry" />
        </mxCell>
        <mxCell id="Z-YwWOS3lwranhnKrXIm-18" value="- telefone" style="text;strokeColor=none;fillColor=none;align=left;verticalAlign=top;spacingLeft=4;spacingRight=4;overflow=hidden;rotatable=0;points=[[0,0.5],[1,0.5]];portConstraint=eastwest;whiteSpace=wrap;html=1;" vertex="1" parent="Z-YwWOS3lwranhnKrXIm-9">
          <mxGeometry y="156" width="160" height="26" as="geometry" />
        </mxCell>
        <mxCell id="Z-YwWOS3lwranhnKrXIm-17" value="- fotoPerfil: Foto" style="text;strokeColor=none;fillColor=none;align=left;verticalAlign=top;spacingLeft=4;spacingRight=4;overflow=hidden;rotatable=0;points=[[0,0.5],[1,0.5]];portConstraint=eastwest;whiteSpace=wrap;html=1;" vertex="1" parent="Z-YwWOS3lwranhnKrXIm-9">
          <mxGeometry y="182" width="160" height="26" as="geometry" />
        </mxCell>
        <mxCell id="Z-YwWOS3lwranhnKrXIm-44" value="- seguindo: Usuario[]" style="text;strokeColor=none;fillColor=none;align=left;verticalAlign=top;spacingLeft=4;spacingRight=4;overflow=hidden;rotatable=0;points=[[0,0.5],[1,0.5]];portConstraint=eastwest;whiteSpace=wrap;html=1;" vertex="1" parent="Z-YwWOS3lwranhnKrXIm-9">
          <mxGeometry y="208" width="160" height="26" as="geometry" />
        </mxCell>
        <mxCell id="Z-YwWOS3lwranhnKrXIm-45" value="- seguidores: Usuario[]" style="text;strokeColor=none;fillColor=none;align=left;verticalAlign=top;spacingLeft=4;spacingRight=4;overflow=hidden;rotatable=0;points=[[0,0.5],[1,0.5]];portConstraint=eastwest;whiteSpace=wrap;html=1;" vertex="1" parent="Z-YwWOS3lwranhnKrXIm-9">
          <mxGeometry y="234" width="160" height="26" as="geometry" />
        </mxCell>
        <mxCell id="Z-YwWOS3lwranhnKrXIm-11" value="" style="line;strokeWidth=1;fillColor=none;align=left;verticalAlign=middle;spacingTop=-1;spacingLeft=3;spacingRight=3;rotatable=0;labelPosition=right;points=[];portConstraint=eastwest;strokeColor=inherit;" vertex="1" parent="Z-YwWOS3lwranhnKrXIm-9">
          <mxGeometry y="260" width="160" height="8" as="geometry" />
        </mxCell>
        <mxCell id="Z-YwWOS3lwranhnKrXIm-19" value="&lt;span style=&quot;font-weight: normal;&quot;&gt;Postagem&lt;/span&gt;" style="swimlane;fontStyle=1;align=center;verticalAlign=top;childLayout=stackLayout;horizontal=1;startSize=26;horizontalStack=0;resizeParent=1;resizeParentMax=0;resizeLast=0;collapsible=1;marginBottom=0;whiteSpace=wrap;html=1;" vertex="1" parent="WIyWlLk6GJQsqaUBKTNV-1">
          <mxGeometry x="-1370" y="200" width="160" height="164" as="geometry" />
        </mxCell>
        <mxCell id="Z-YwWOS3lwranhnKrXIm-47" value="- &amp;lt;&amp;lt;oid&amp;gt;&amp;gt; id: Integer" style="text;strokeColor=none;fillColor=none;align=left;verticalAlign=top;spacingLeft=4;spacingRight=4;overflow=hidden;rotatable=0;points=[[0,0.5],[1,0.5]];portConstraint=eastwest;whiteSpace=wrap;html=1;" vertex="1" parent="Z-YwWOS3lwranhnKrXIm-19">
          <mxGeometry y="26" width="160" height="26" as="geometry" />
        </mxCell>
        <mxCell id="Z-YwWOS3lwranhnKrXIm-20" value="- tiulo: String" style="text;strokeColor=none;fillColor=none;align=left;verticalAlign=top;spacingLeft=4;spacingRight=4;overflow=hidden;rotatable=0;points=[[0,0.5],[1,0.5]];portConstraint=eastwest;whiteSpace=wrap;html=1;" vertex="1" parent="Z-YwWOS3lwranhnKrXIm-19">
          <mxGeometry y="52" width="160" height="26" as="geometry" />
        </mxCell>
        <mxCell id="Z-YwWOS3lwranhnKrXIm-21" value="- texto: String" style="text;strokeColor=none;fillColor=none;align=left;verticalAlign=top;spacingLeft=4;spacingRight=4;overflow=hidden;rotatable=0;points=[[0,0.5],[1,0.5]];portConstraint=eastwest;whiteSpace=wrap;html=1;" vertex="1" parent="Z-YwWOS3lwranhnKrXIm-19">
          <mxGeometry y="78" width="160" height="26" as="geometry" />
        </mxCell>
        <mxCell id="Z-YwWOS3lwranhnKrXIm-25" value="- fotos: Foto[]" style="text;strokeColor=none;fillColor=none;align=left;verticalAlign=top;spacingLeft=4;spacingRight=4;overflow=hidden;rotatable=0;points=[[0,0.5],[1,0.5]];portConstraint=eastwest;whiteSpace=wrap;html=1;" vertex="1" parent="Z-YwWOS3lwranhnKrXIm-19">
          <mxGeometry y="104" width="160" height="26" as="geometry" />
        </mxCell>
        <mxCell id="Z-YwWOS3lwranhnKrXIm-49" value="- instante: Date" style="text;strokeColor=none;fillColor=none;align=left;verticalAlign=top;spacingLeft=4;spacingRight=4;overflow=hidden;rotatable=0;points=[[0,0.5],[1,0.5]];portConstraint=eastwest;whiteSpace=wrap;html=1;" vertex="1" parent="Z-YwWOS3lwranhnKrXIm-19">
          <mxGeometry y="130" width="160" height="26" as="geometry" />
        </mxCell>
        <mxCell id="Z-YwWOS3lwranhnKrXIm-26" value="" style="line;strokeWidth=1;fillColor=none;align=left;verticalAlign=middle;spacingTop=-1;spacingLeft=3;spacingRight=3;rotatable=0;labelPosition=right;points=[];portConstraint=eastwest;strokeColor=inherit;" vertex="1" parent="Z-YwWOS3lwranhnKrXIm-19">
          <mxGeometry y="156" width="160" height="8" as="geometry" />
        </mxCell>
        <mxCell id="Z-YwWOS3lwranhnKrXIm-27" value="&lt;span style=&quot;font-weight: normal;&quot;&gt;Foto&lt;/span&gt;" style="swimlane;fontStyle=1;align=center;verticalAlign=top;childLayout=stackLayout;horizontal=1;startSize=26;horizontalStack=0;resizeParent=1;resizeParentMax=0;resizeLast=0;collapsible=1;marginBottom=0;whiteSpace=wrap;html=1;" vertex="1" parent="WIyWlLk6GJQsqaUBKTNV-1">
          <mxGeometry x="-1170" y="200" width="160" height="60" as="geometry" />
        </mxCell>
        <mxCell id="Z-YwWOS3lwranhnKrXIm-28" value="- &amp;lt;&amp;lt;oid&amp;gt;&amp;gt; uri: String" style="text;strokeColor=none;fillColor=none;align=left;verticalAlign=top;spacingLeft=4;spacingRight=4;overflow=hidden;rotatable=0;points=[[0,0.5],[1,0.5]];portConstraint=eastwest;whiteSpace=wrap;html=1;" vertex="1" parent="Z-YwWOS3lwranhnKrXIm-27">
          <mxGeometry y="26" width="160" height="26" as="geometry" />
        </mxCell>
        <mxCell id="Z-YwWOS3lwranhnKrXIm-34" value="" style="line;strokeWidth=1;fillColor=none;align=left;verticalAlign=middle;spacingTop=-1;spacingLeft=3;spacingRight=3;rotatable=0;labelPosition=right;points=[];portConstraint=eastwest;strokeColor=inherit;" vertex="1" parent="Z-YwWOS3lwranhnKrXIm-27">
          <mxGeometry y="52" width="160" height="8" as="geometry" />
        </mxCell>
        <mxCell id="Z-YwWOS3lwranhnKrXIm-36" value="&lt;span style=&quot;font-weight: normal;&quot;&gt;Album&lt;/span&gt;" style="swimlane;fontStyle=1;align=center;verticalAlign=top;childLayout=stackLayout;horizontal=1;startSize=26;horizontalStack=0;resizeParent=1;resizeParentMax=0;resizeLast=0;collapsible=1;marginBottom=0;whiteSpace=wrap;html=1;" vertex="1" parent="WIyWlLk6GJQsqaUBKTNV-1">
          <mxGeometry x="-970" y="200" width="160" height="112" as="geometry" />
        </mxCell>
        <mxCell id="Z-YwWOS3lwranhnKrXIm-46" value="- &amp;lt;&amp;lt;oid&amp;gt;&amp;gt; id: Integer" style="text;strokeColor=none;fillColor=none;align=left;verticalAlign=top;spacingLeft=4;spacingRight=4;overflow=hidden;rotatable=0;points=[[0,0.5],[1,0.5]];portConstraint=eastwest;whiteSpace=wrap;html=1;" vertex="1" parent="Z-YwWOS3lwranhnKrXIm-36">
          <mxGeometry y="26" width="160" height="26" as="geometry" />
        </mxCell>
        <mxCell id="Z-YwWOS3lwranhnKrXIm-37" value="- tiulo: String" style="text;strokeColor=none;fillColor=none;align=left;verticalAlign=top;spacingLeft=4;spacingRight=4;overflow=hidden;rotatable=0;points=[[0,0.5],[1,0.5]];portConstraint=eastwest;whiteSpace=wrap;html=1;" vertex="1" parent="Z-YwWOS3lwranhnKrXIm-36">
          <mxGeometry y="52" width="160" height="26" as="geometry" />
        </mxCell>
        <mxCell id="Z-YwWOS3lwranhnKrXIm-42" value="- fotos: Foto[]" style="text;strokeColor=none;fillColor=none;align=left;verticalAlign=top;spacingLeft=4;spacingRight=4;overflow=hidden;rotatable=0;points=[[0,0.5],[1,0.5]];portConstraint=eastwest;whiteSpace=wrap;html=1;" vertex="1" parent="Z-YwWOS3lwranhnKrXIm-36">
          <mxGeometry y="78" width="160" height="26" as="geometry" />
        </mxCell>
        <mxCell id="Z-YwWOS3lwranhnKrXIm-43" value="" style="line;strokeWidth=1;fillColor=none;align=left;verticalAlign=middle;spacingTop=-1;spacingLeft=3;spacingRight=3;rotatable=0;labelPosition=right;points=[];portConstraint=eastwest;strokeColor=inherit;" vertex="1" parent="Z-YwWOS3lwranhnKrXIm-36">
          <mxGeometry y="104" width="160" height="8" as="geometry" />
        </mxCell>
      </root>
    </mxGraphModel>
  </diagram>
</mxfile>
